<svg width="20" height="20" viewBox="0 0 20 20" fill="none" xmlns="http://www.w3.org/2000/svg">
<path d="M14.9499 13.955C16.2629 12.6414 17.0004 10.8602 17.0004 9.003C17.0004 7.14579 16.2629 5.36459 14.9499 4.051C14.3001 3.40067 13.5284 2.88478 12.6791 2.53281C11.8297 2.18083 10.9193 1.99966 9.99995 1.99966C9.08056 1.99966 8.17018 2.18083 7.32084 2.53281C6.47149 2.88478 5.69983 3.40067 5.04995 4.051C3.73704 5.36459 2.99951 7.14579 2.99951 9.003C2.99951 10.8602 3.73704 12.6414 5.04995 13.955L6.57095 15.454L8.61395 17.439L8.74695 17.557C9.52195 18.185 10.6569 18.145 11.3869 17.439L13.8219 15.069L14.9499 13.955V13.955ZM9.99995 12C9.2043 12 8.44124 11.6839 7.87863 11.1213C7.31602 10.5587 6.99995 9.79565 6.99995 9C6.99995 8.20435 7.31602 7.44129 7.87863 6.87868C8.44124 6.31607 9.2043 6 9.99995 6C10.7956 6 11.5587 6.31607 12.1213 6.87868C12.6839 7.44129 12.9999 8.20435 12.9999 9C12.9999 9.79565 12.6839 10.5587 12.1213 11.1213C11.5587 11.6839 10.7956 12 9.99995 12Z" fill="black"/>
</svg>
